<svg width="17" height="15" viewBox="0 0 17 15" fill="none" xmlns="http://www.w3.org/2000/svg">
<path d="M16.1154 1.33498C16.0828 1.18761 16.0214 1.04813 15.9347 0.924565C15.8481 0.801 15.7378 0.695789 15.6104 0.614983C15.4828 0.532801 15.3403 0.476778 15.1909 0.450169C15.0416 0.42356 14.8884 0.426896 14.7404 0.459983L10.9904 1.29498L5.99035 0.294983L1.74035 1.23998C1.48503 1.29591 1.25654 1.4375 1.09281 1.64125C0.929093 1.84499 0.840006 2.09861 0.840353 2.35998V13.335C0.839179 13.5283 0.887209 13.7188 0.979925 13.8885C1.07264 14.0582 1.207 14.2015 1.37035 14.305C1.49787 14.3872 1.64044 14.4432 1.7898 14.4698C1.93915 14.4964 2.0923 14.4931 2.24035 14.46L5.99035 13.625L10.9904 14.625L15.2354 13.68C15.4907 13.6241 15.7192 13.4825 15.8829 13.2787C16.0466 13.075 16.1357 12.8214 16.1354 12.56V1.58498C16.1345 1.5008 16.1245 1.41697 16.1054 1.33498H16.1154ZM6.74035 12.45L5.98535 12.3L5.24035 12.46V1.78998L5.99535 1.62498L6.74035 1.77498V12.445V12.45ZM11.7404 13.13L10.9854 13.295L10.2404 13.145V2.46998L10.9954 2.61998L11.7404 2.45998H11.7454V13.13H11.7404Z" fill="white"/>
</svg>
