<svg width="24" height="23" viewBox="0 0 24 23" fill="none" xmlns="http://www.w3.org/2000/svg">
<path d="M19.5 1.25C20.2956 1.25 21.0587 1.56607 21.6213 2.12868C22.1839 2.69129 22.5 3.45435 22.5 4.25V14.75C22.5 15.5456 22.1839 16.3087 21.6213 16.8713C21.0587 17.4339 20.2956 17.75 19.5 17.75H14.76L12 21.125L9.24 17.75H4.5C3.70435 17.75 2.94129 17.4339 2.37868 16.8713C1.81607 16.3087 1.5 15.5456 1.5 14.75V4.25C1.5 3.45435 1.81607 2.69129 2.37868 2.12868C2.94129 1.56607 3.70435 1.25 4.5 1.25H19.5Z" stroke="#6A6A6A" stroke-width="1.5"/>
</svg>
