<svg width="24" height="24" viewBox="0 0 24 24" fill="none" xmlns="http://www.w3.org/2000/svg">
<path d="M12 22.5C17.799 22.5 22.5 17.799 22.5 12C22.5 6.20101 17.799 1.5 12 1.5C6.20101 1.5 1.5 6.20101 1.5 12C1.5 17.799 6.20101 22.5 12 22.5Z" stroke="#6A6A6A" stroke-width="1.5"/>
<path d="M10.5148 14.745C9.51149 14.3942 8.66468 13.6996 8.12444 12.7843C7.58421 11.8689 7.38543 10.7919 7.56331 9.74395C7.7412 8.69604 8.28427 7.74493 9.09632 7.05912C9.90836 6.37331 10.9369 5.99707 11.9998 5.99707C13.0627 5.99707 14.0913 6.37331 14.9034 7.05912C15.7154 7.74493 16.2585 8.69604 16.4364 9.74395C16.6143 10.7919 16.4155 11.8689 15.8752 12.7843C15.335 13.6996 14.4882 14.3942 13.4848 14.745M13.0123 14.7525H13.4998C16.2673 15.21 18.5998 16.935 19.9048 19.3125M4.21484 19.11C4.87859 17.967 5.78574 16.9842 6.87192 16.2311C7.9581 15.478 9.1967 14.9732 10.4998 14.7525H10.9648" stroke="#6A6A6A" stroke-width="1.5"/>
</svg>
