<svg width="21" height="22" viewBox="0 0 21 22" fill="none" xmlns="http://www.w3.org/2000/svg">
<path d="M10.5027 17.705C8.74019 20.0675 6.97769 21.2525 5.20019 21.2525C2.48519 21.2525 1.32269 19.4675 1.05269 18.095C0.812686 16.8725 1.42769 15.23 1.65269 14.69L2.96519 11.8025C4.16073 9.14949 5.43124 6.53094 6.77519 3.94997L7.45019 2.74997L7.62269 2.44247C7.92269 1.93247 8.74769 0.75497 10.5027 0.75497C11.0788 0.736795 11.6486 0.878546 12.149 1.1645C12.6494 1.45045 13.0609 1.86943 13.3377 2.37497L13.5552 2.74997L14.1252 3.77747L14.4252 4.32497C15.3402 6.04997 16.4877 8.46497 17.4402 10.5125L19.3227 14.6375C19.5252 15.095 20.1927 16.8275 19.9452 18.1025C19.6752 19.475 18.5202 21.2525 15.7977 21.2525C13.9827 21.2525 12.2202 20.075 10.5027 17.7125V17.705Z" stroke="#6A6A6A" stroke-width="1.5"/>
<path d="M10.5025 17.7049C12.0775 15.6049 13.0075 13.8874 13.2775 12.5749C13.6675 10.6024 12.4825 8.95239 10.5025 8.95239C8.52254 8.95239 7.33005 10.6024 7.72755 12.5749C7.99005 13.8874 8.92004 15.5974 10.5025 17.7049Z" stroke="#6A6A6A" stroke-width="1.5"/>
</svg>
