<svg width="24" height="20" viewBox="0 0 24 20" fill="none" xmlns="http://www.w3.org/2000/svg">
<path d="M11.9951 19C17.2451 15.4525 22.4951 11.5 22.4951 6.25003C22.4971 5.56004 22.3627 4.87646 22.0995 4.2386C21.8364 3.60075 21.4498 3.02121 20.9618 2.53331C20.4739 2.0454 19.8944 1.65877 19.2566 1.39563C18.6187 1.1325 17.9351 0.998052 17.2451 1.00003C15.8951 1.00003 14.5601 1.51003 13.5326 2.53753L11.9951 4.07503L10.4576 2.53753C9.97112 2.04817 9.39266 1.65983 8.75553 1.39483C8.1184 1.12983 7.43517 0.993408 6.74512 0.993408C6.05508 0.993408 5.37184 1.12983 4.73471 1.39483C4.09758 1.65983 3.51913 2.04817 3.03262 2.53753C2.54446 3.02458 2.15734 3.60328 1.89348 4.24039C1.62963 4.87749 1.49425 5.56045 1.49512 6.25003C1.49512 11.5 6.74512 15.4525 11.9951 19Z" stroke="#6A6A6A" stroke-width="1.5"/>
</svg>
