<svg width="20" height="20" viewBox="0 0 20 20" fill="none" xmlns="http://www.w3.org/2000/svg">
<path d="M8.125 3.39643e-07C9.62552 -0.000433451 11.0969 0.414668 12.3759 1.19929C13.6549 1.98391 14.6917 3.10739 15.3713 4.4452C16.0509 5.78301 16.3467 7.28288 16.226 8.77854C16.1053 10.2742 15.5728 11.7072 14.6875 12.9187L19.6313 17.8687L17.8687 19.6313L12.9187 14.6875C11.5282 15.7058 9.84859 16.2533 8.125 16.25C5.97012 16.25 3.90349 15.394 2.37976 13.8702C0.856024 12.3465 0 10.2799 0 8.125C0 5.97012 0.856024 3.90349 2.37976 2.37976C3.90349 0.856025 5.97012 3.39643e-07 8.125 3.39643e-07ZM8.125 2.5C7.38631 2.5 6.65486 2.6455 5.97241 2.92818C5.28995 3.21086 4.66985 3.6252 4.14752 4.14752C3.62519 4.66985 3.21086 5.28995 2.92818 5.97241C2.64549 6.65486 2.5 7.38631 2.5 8.125C2.5 8.86369 2.64549 9.59514 2.92818 10.2776C3.21086 10.9601 3.62519 11.5801 4.14752 12.1025C4.66985 12.6248 5.28995 13.0391 5.97241 13.3218C6.65486 13.6045 7.38631 13.75 8.125 13.75C9.61684 13.75 11.0476 13.1574 12.1025 12.1025C13.1574 11.0476 13.75 9.61684 13.75 8.125C13.75 6.63316 13.1574 5.20242 12.1025 4.14752C11.0476 3.09263 9.61684 2.5 8.125 2.5Z" fill="#222222"/>
</svg>
